<svg width="100%" height="100%" viewBox="0 0 38 34" fill="none" xmlns="http://www.w3.org/2000/svg">
    <g clip-path="url(#clip0_1998_6191)">
        <path
            d="M24.8413 33.8387H12.3884C10.1932 33.8387 8.14826 32.6653 7.05131 30.7776L0.824182 20.0618C-0.272774 18.1727 -0.272774 15.8272 0.824182 13.9382L7.05131 3.22237C8.14826 1.33472 10.1932 0.161285 12.3884 0.161285H24.8427C27.038 0.161285 29.0829 1.33472 30.1798 3.22237L33.2651 8.53163C33.9095 9.64064 33.5273 11.0581 32.411 11.6996C31.2947 12.3398 29.868 11.9601 29.2222 10.8511L26.137 5.54183C25.8707 5.08397 25.3739 4.79884 24.8413 4.79884H12.3884C11.8558 4.79884 11.3591 5.08397 11.0928 5.54183L4.86567 16.2577C4.59937 16.7155 4.59937 17.2858 4.86567 17.7437L11.0928 28.4595C11.3591 28.9174 11.8558 29.2025 12.3884 29.2025H24.8427C25.3753 29.2025 25.872 28.9174 26.1383 28.4595L31.5845 19.0871H21.1517C19.8629 19.0871 18.8184 18.0494 18.8184 16.769C18.8184 15.4886 19.8629 14.4509 21.1517 14.4509H34.6739C36.0192 14.4509 37.1355 15.5366 37.1631 16.8718C37.1866 18.0699 36.8816 19.2516 36.2786 20.288L30.1826 30.779C29.0815 32.6653 27.0366 33.8387 24.8413 33.8387Z"
            fill="#14181f" />
        <path
            d="M10.3143 20.8651C9.91279 20.8651 9.50437 20.7623 9.1332 20.5443C8.02244 19.8945 7.65127 18.4743 8.3053 17.3708L14.0674 7.63785C14.7215 6.53433 16.151 6.16557 17.2617 6.81535C18.3725 7.46513 18.7436 8.88532 18.0896 9.98884L12.3275 19.7218C11.8928 20.4552 11.1146 20.8651 10.3143 20.8651Z"
            fill="#14181f" />
    </g>
</svg>
    